<svg width="48" height="48" viewBox="0 0 48 48" fill="none" xmlns="http://www.w3.org/2000/svg">
<rect width="48" height="48" fill="#E5E5E5"/>
<g clip-path="url(#clip0)">
<rect width="1440" height="740" transform="translate(-526 -142)" fill="white"/>
<rect opacity="0.05" x="-526" y="-142" width="1440" height="800" fill="#333333"/>
<g filter="url(#filter0_d)">
<rect x="-16" y="-16" width="210" height="80" rx="10" fill="white"/>
<rect x="-15.5" y="-15.5" width="209" height="79" rx="9.5" stroke="#DADADA"/>
</g>
<g opacity="0.2">
<rect width="48" height="48" rx="24" fill="url(#paint0_linear)"/>
</g>
<path d="M29 33V31C29 29.9391 28.5786 28.9217 27.8284 28.1716C27.0783 27.4214 26.0609 27 25 27H17C15.9391 27 14.9217 27.4214 14.1716 28.1716C13.4214 28.9217 13 29.9391 13 31V33" stroke="url(#paint1_linear)" stroke-linecap="round" stroke-linejoin="round"/>
<path d="M21 23C23.2091 23 25 21.2091 25 19C25 16.7909 23.2091 15 21 15C18.7909 15 17 16.7909 17 19C17 21.2091 18.7909 23 21 23Z" stroke="url(#paint2_linear)" stroke-linecap="round" stroke-linejoin="round"/>
<path d="M35 33V31C34.9993 30.1137 34.7044 29.2528 34.1614 28.5523C33.6184 27.8518 32.8581 27.3516 32 27.13" stroke="url(#paint3_linear)" stroke-linecap="round" stroke-linejoin="round"/>
<path d="M28 15.13C28.8604 15.3503 29.623 15.8507 30.1676 16.5523C30.7122 17.2539 31.0078 18.1168 31.0078 19.005C31.0078 19.8932 30.7122 20.7561 30.1676 21.4577C29.623 22.1593 28.8604 22.6597 28 22.88" stroke="url(#paint4_linear)" stroke-linecap="round" stroke-linejoin="round"/>
</g>
<defs>
<filter id="filter0_d" x="-20" y="-16" width="218" height="88" filterUnits="userSpaceOnUse" color-interpolation-filters="sRGB">
<feFlood flood-opacity="0" result="BackgroundImageFix"/>
<feColorMatrix in="SourceAlpha" type="matrix" values="0 0 0 0 0 0 0 0 0 0 0 0 0 0 0 0 0 0 127 0" result="hardAlpha"/>
<feOffset dy="4"/>
<feGaussianBlur stdDeviation="2"/>
<feColorMatrix type="matrix" values="0 0 0 0 0 0 0 0 0 0 0 0 0 0 0 0 0 0 0.02 0"/>
<feBlend mode="normal" in2="BackgroundImageFix" result="effect1_dropShadow"/>
<feBlend mode="normal" in="SourceGraphic" in2="effect1_dropShadow" result="shape"/>
</filter>
<linearGradient id="paint0_linear" x1="24" y1="0" x2="24" y2="48" gradientUnits="userSpaceOnUse">
<stop stop-color="#FFC700"/>
<stop offset="1" stop-color="#D1A402"/>
</linearGradient>
<linearGradient id="paint1_linear" x1="21" y1="27" x2="21" y2="33" gradientUnits="userSpaceOnUse">
<stop stop-color="#FFC700"/>
<stop offset="1" stop-color="#D1A402"/>
</linearGradient>
<linearGradient id="paint2_linear" x1="21" y1="15" x2="21" y2="23" gradientUnits="userSpaceOnUse">
<stop stop-color="#FFC700"/>
<stop offset="1" stop-color="#D1A402"/>
</linearGradient>
<linearGradient id="paint3_linear" x1="33.5" y1="27.13" x2="33.5" y2="33" gradientUnits="userSpaceOnUse">
<stop stop-color="#FFC700"/>
<stop offset="1" stop-color="#D1A402"/>
</linearGradient>
<linearGradient id="paint4_linear" x1="29.5039" y1="15.13" x2="29.5039" y2="22.88" gradientUnits="userSpaceOnUse">
<stop stop-color="#FFC700"/>
<stop offset="1" stop-color="#D1A402"/>
</linearGradient>
<clipPath id="clip0">
<rect width="1440" height="740" fill="white" transform="translate(-526 -142)"/>
</clipPath>
</defs>
</svg>
