<svg width="340" height="100" viewBox="0 0 340 100" fill="none" xmlns="http://www.w3.org/2000/svg">
<rect width="340" height="100" fill="#E5E5E5"/>
<g clip-path="url(#clip0)">
<rect width="1440" height="740" transform="translate(-1035 -175)" fill="white"/>
<rect opacity="0.05" x="-1035" y="-175" width="1440" height="800" fill="#8F1FC4"/>
<rect x="-34.5" y="-84.5" width="409" height="619" rx="9.5" fill="white" stroke="#DADADA"/>
<rect x="0.5" y="0.5" width="339" height="99" rx="4.5" fill="white" stroke="#A1A4B2" stroke-linecap="round" stroke-dasharray="4 4"/>
<path d="M135.848 68.432C135.644 67.328 134.834 66.776 133.418 66.776C132.662 66.776 132.08 66.944 131.672 67.28C131.264 67.604 131.06 68 131.06 68.468C131.06 68.924 131.186 69.272 131.438 69.512C131.69 69.752 132.098 69.962 132.662 70.142L135.02 70.952C135.824 71.228 136.46 71.606 136.928 72.086C137.408 72.566 137.648 73.244 137.648 74.12C137.648 74.984 137.276 75.716 136.532 76.316C135.788 76.904 134.792 77.198 133.544 77.198C132.296 77.198 131.27 76.886 130.466 76.262C129.674 75.626 129.266 74.738 129.242 73.598H130.628C130.628 74.342 130.886 74.912 131.402 75.308C131.93 75.704 132.602 75.902 133.418 75.902C134.246 75.902 134.9 75.722 135.38 75.362C135.86 74.99 136.1 74.558 136.1 74.066C136.1 73.562 135.95 73.166 135.65 72.878C135.362 72.59 134.93 72.35 134.354 72.158L132.356 71.42C131.42 71.108 130.712 70.736 130.232 70.304C129.752 69.872 129.512 69.242 129.512 68.414C129.512 67.574 129.848 66.878 130.52 66.326C131.192 65.762 132.134 65.48 133.346 65.48C134.558 65.48 135.482 65.75 136.118 66.29C136.766 66.818 137.138 67.532 137.234 68.432H135.848ZM143.686 76.046C144.874 76.046 145.552 75.524 145.72 74.48H147.178C147.046 75.344 146.662 76.016 146.026 76.496C145.402 76.964 144.622 77.198 143.686 77.198C142.534 77.198 141.598 76.79 140.878 75.974C140.158 75.146 139.798 74.048 139.798 72.68C139.798 71.312 140.158 70.22 140.878 69.404C141.61 68.588 142.576 68.18 143.776 68.18C144.988 68.18 145.888 68.648 146.476 69.584C147.076 70.52 147.286 71.66 147.106 73.004H141.22C141.22 73.892 141.436 74.624 141.868 75.2C142.3 75.764 142.906 76.046 143.686 76.046ZM144.73 69.53C144.454 69.386 144.118 69.314 143.722 69.314C142.99 69.314 142.408 69.566 141.976 70.07C141.556 70.562 141.31 71.18 141.238 71.924H145.828C145.828 70.724 145.462 69.926 144.73 69.53ZM149.98 64.742H151.402V77H149.98V64.742ZM157.995 76.046C159.183 76.046 159.861 75.524 160.029 74.48H161.487C161.355 75.344 160.971 76.016 160.335 76.496C159.711 76.964 158.931 77.198 157.995 77.198C156.843 77.198 155.907 76.79 155.187 75.974C154.467 75.146 154.107 74.048 154.107 72.68C154.107 71.312 154.467 70.22 155.187 69.404C155.919 68.588 156.885 68.18 158.085 68.18C159.297 68.18 160.197 68.648 160.785 69.584C161.385 70.52 161.595 71.66 161.415 73.004H155.529C155.529 73.892 155.745 74.624 156.177 75.2C156.609 75.764 157.215 76.046 157.995 76.046ZM159.039 69.53C158.763 69.386 158.427 69.314 158.031 69.314C157.299 69.314 156.717 69.566 156.285 70.07C155.865 70.562 155.619 71.18 155.547 71.924H160.137C160.137 70.724 159.771 69.926 159.039 69.53ZM167.151 68.18C168.171 68.18 168.981 68.444 169.581 68.972C170.181 69.488 170.571 70.136 170.751 70.916L169.311 71.042C169.155 70.538 168.903 70.148 168.555 69.872C168.207 69.584 167.823 69.44 167.403 69.44C166.635 69.44 166.011 69.728 165.531 70.304C165.063 70.88 164.829 71.666 164.829 72.662C164.829 73.646 165.057 74.438 165.513 75.038C165.981 75.638 166.557 75.938 167.241 75.938C167.937 75.938 168.453 75.782 168.789 75.47C169.137 75.146 169.311 74.69 169.311 74.102H170.769C170.769 75.026 170.445 75.776 169.797 76.352C169.161 76.916 168.327 77.198 167.295 77.198C166.203 77.198 165.273 76.784 164.505 75.956C163.749 75.128 163.371 74.03 163.371 72.662C163.371 71.282 163.749 70.19 164.505 69.386C165.261 68.582 166.143 68.18 167.151 68.18ZM178.052 76.748C177.02 77.228 176.078 77.33 175.226 77.054C174.614 76.862 174.182 76.46 173.93 75.848C173.798 75.548 173.732 75.188 173.732 74.768V69.476H172.346V68.396H173.732V66.002H175.136V68.396H177.836V69.476H175.136V74.75C175.136 75.626 175.544 76.064 176.36 76.064C176.804 76.064 177.302 75.956 177.854 75.74L178.052 76.748ZM184.609 65.678H191.485V66.902H186.031V70.664H191.107V71.888H186.031V77H184.609V65.678ZM194.138 68.378H195.56V77H194.138V68.378ZM194.84 66.362C194.552 66.362 194.324 66.284 194.156 66.128C194 65.96 193.922 65.744 193.922 65.48C193.922 65.204 194 64.988 194.156 64.832C194.324 64.664 194.552 64.58 194.84 64.58C195.128 64.58 195.356 64.664 195.524 64.832C195.704 64.988 195.794 65.204 195.794 65.48C195.794 65.744 195.704 65.96 195.524 66.128C195.356 66.284 195.128 66.362 194.84 66.362ZM199.427 64.742H200.849V77H199.427V64.742ZM207.442 76.046C208.63 76.046 209.308 75.524 209.476 74.48H210.934C210.802 75.344 210.418 76.016 209.782 76.496C209.158 76.964 208.378 77.198 207.442 77.198C206.29 77.198 205.354 76.79 204.634 75.974C203.914 75.146 203.554 74.048 203.554 72.68C203.554 71.312 203.914 70.22 204.634 69.404C205.366 68.588 206.332 68.18 207.532 68.18C208.744 68.18 209.644 68.648 210.232 69.584C210.832 70.52 211.042 71.66 210.862 73.004H204.976C204.976 73.892 205.192 74.624 205.624 75.2C206.056 75.764 206.662 76.046 207.442 76.046ZM208.486 69.53C208.21 69.386 207.874 69.314 207.478 69.314C206.746 69.314 206.164 69.566 205.732 70.07C205.312 70.562 205.066 71.18 204.994 71.924H209.584C209.584 70.724 209.218 69.926 208.486 69.53Z" fill="#A1A4B2"/>
<path d="M178 40L170 32L162 40" stroke="#A1A4B2" stroke-width="2" stroke-linecap="round" stroke-linejoin="round"/>
<path d="M170 32V50" stroke="#A1A4B2" stroke-width="2" stroke-linecap="round" stroke-linejoin="round"/>
<path d="M186.78 44.78C188.731 43.7165 190.272 42.0338 191.16 39.9973C192.048 37.9607 192.232 35.6865 191.684 33.5334C191.136 31.3803 189.887 29.471 188.133 28.1069C186.38 26.7428 184.222 26.0015 182 26H179.48C178.875 23.6585 177.746 21.4847 176.18 19.642C174.613 17.7993 172.65 16.3357 170.436 15.3612C168.223 14.3867 165.817 13.9267 163.4 14.0158C160.983 14.1048 158.618 14.7406 156.482 15.8753C154.346 17.0101 152.496 18.6142 151.069 20.5672C149.643 22.5201 148.677 24.7711 148.246 27.1508C147.814 29.5305 147.928 31.9771 148.578 34.3065C149.229 36.636 150.398 38.7877 152 40.6" stroke="#A1A4B2" stroke-width="2" stroke-linecap="round" stroke-linejoin="round"/>
<path d="M178 40L170 32L162 40" stroke="#A1A4B2" stroke-width="2" stroke-linecap="round" stroke-linejoin="round"/>
</g>
<defs>
<clipPath id="clip0">
<rect width="1440" height="740" fill="white" transform="translate(-1035 -175)"/>
</clipPath>
</defs>
</svg>
