<svg width="48" height="48" viewBox="0 0 48 48" fill="none" xmlns="http://www.w3.org/2000/svg">
<rect width="48" height="48" fill="#E5E5E5"/>
<g clip-path="url(#clip0)">
<rect width="1440" height="740" transform="translate(-286 -142)" fill="white"/>
<rect opacity="0.05" x="-286" y="-142" width="1440" height="800" fill="#333333"/>
<g filter="url(#filter0_d)">
<rect x="-16" y="-16" width="210" height="80" rx="10" fill="white"/>
<rect x="-15.5" y="-15.5" width="209" height="79" rx="9.5" stroke="#DADADA"/>
</g>
<g opacity="0.2">
<rect width="48" height="48" rx="24" fill="url(#paint0_linear)"/>
</g>
<path d="M16 31.5C16 30.837 16.2634 30.2011 16.7322 29.7322C17.2011 29.2634 17.837 29 18.5 29H32" stroke="url(#paint1_linear)" stroke-linecap="round" stroke-linejoin="round"/>
<path d="M18.5 14H32V34H18.5C17.837 34 17.2011 33.7366 16.7322 33.2678C16.2634 32.7989 16 32.163 16 31.5V16.5C16 15.837 16.2634 15.2011 16.7322 14.7322C17.2011 14.2634 17.837 14 18.5 14V14Z" stroke="url(#paint2_linear)" stroke-linecap="round" stroke-linejoin="round"/>
</g>
<defs>
<filter id="filter0_d" x="-20" y="-16" width="218" height="88" filterUnits="userSpaceOnUse" color-interpolation-filters="sRGB">
<feFlood flood-opacity="0" result="BackgroundImageFix"/>
<feColorMatrix in="SourceAlpha" type="matrix" values="0 0 0 0 0 0 0 0 0 0 0 0 0 0 0 0 0 0 127 0" result="hardAlpha"/>
<feOffset dy="4"/>
<feGaussianBlur stdDeviation="2"/>
<feColorMatrix type="matrix" values="0 0 0 0 0 0 0 0 0 0 0 0 0 0 0 0 0 0 0.02 0"/>
<feBlend mode="normal" in2="BackgroundImageFix" result="effect1_dropShadow"/>
<feBlend mode="normal" in="SourceGraphic" in2="effect1_dropShadow" result="shape"/>
</filter>
<linearGradient id="paint0_linear" x1="24" y1="0" x2="24" y2="48" gradientUnits="userSpaceOnUse">
<stop stop-color="#8F1FC4"/>
<stop offset="1" stop-color="#5F048A"/>
</linearGradient>
<linearGradient id="paint1_linear" x1="24" y1="29" x2="24" y2="31.5" gradientUnits="userSpaceOnUse">
<stop stop-color="#8F1FC4"/>
<stop offset="1" stop-color="#5F048A"/>
</linearGradient>
<linearGradient id="paint2_linear" x1="24" y1="14" x2="24" y2="34" gradientUnits="userSpaceOnUse">
<stop stop-color="#8F1FC4"/>
<stop offset="1" stop-color="#5F048A"/>
</linearGradient>
<clipPath id="clip0">
<rect width="1440" height="740" fill="white" transform="translate(-286 -142)"/>
</clipPath>
</defs>
</svg>
